<svg width="44" height="44" viewBox="0 0 44 44" fill="none" xmlns="http://www.w3.org/2000/svg" xmlns:xlink="http://www.w3.org/1999/xlink">
<path d="M20.164,9.333C21.269,9.333 22.164,8.438 22.164,7.333C22.164,6.228 21.269,5.333 20.164,5.333L20.164,9.333ZM7.331,7.333L7.331,5.333L7.331,7.333ZM3.664,11L1.664,11L3.664,11ZM3.664,36.666L1.664,36.666L3.664,36.666ZM4.738,39.259L6.152,37.845L4.738,39.259ZM35.59,39.259L34.176,37.845L35.59,39.259ZM38.664,23.833C38.664,22.728 37.769,21.833 36.664,21.833C35.559,21.833 34.664,22.728 34.664,23.833L38.664,23.833ZM20.164,5.333L7.331,5.333L7.331,9.333L20.164,9.333L20.164,5.333ZM7.331,5.333C5.828,5.333 4.386,5.93 3.324,6.993L6.152,9.821C6.465,9.509 6.889,9.333 7.331,9.333L7.331,5.333ZM3.324,6.993C2.261,8.055 1.664,9.497 1.664,11L5.664,11C5.664,10.558 5.84,10.134 6.152,9.821L3.324,6.993ZM1.664,11L1.664,36.666L5.664,36.666L5.664,11L1.664,11ZM1.664,36.666C1.664,38.169 2.261,39.611 3.324,40.673L6.152,37.845C5.84,37.532 5.664,37.108 5.664,36.666L1.664,36.666ZM3.324,40.673C4.386,41.736 5.828,42.333 7.331,42.333L7.331,38.333C6.889,38.333 6.465,38.157 6.152,37.845L3.324,40.673ZM7.331,42.333L32.997,42.333L32.997,38.333L7.331,38.333L7.331,42.333ZM32.997,42.333C34.5,42.333 35.942,41.736 37.004,40.673L34.176,37.845C33.863,38.157 33.439,38.333 32.997,38.333L32.997,42.333ZM37.004,40.673C38.067,39.611 38.664,38.169 38.664,36.666L34.664,36.666C34.664,37.108 34.488,37.532 34.176,37.845L37.004,40.673ZM38.664,36.666L38.664,23.833L34.664,23.833L34.664,36.666L38.664,36.666Z" fill="#FFFFFF"/>
<path d="M33.914,4.583L32.5,3.169L32.5,3.169L33.914,4.583ZM36.664,3.444L36.664,1.444L36.664,3.444ZM39.414,10.083L38,8.669L38,8.669L39.414,10.083ZM21.997,27.5L22.482,29.44C22.834,29.353 23.155,29.171 23.412,28.914L21.997,27.5ZM14.664,29.333L12.724,28.848C12.553,29.53 12.753,30.251 13.25,30.748C13.747,31.244 14.468,31.444 15.149,31.274L14.664,29.333ZM16.497,22L15.083,20.586C14.827,20.842 14.645,21.163 14.557,21.515L16.497,22ZM35.328,5.998C35.682,5.643 36.163,5.444 36.664,5.444L36.664,1.444C35.102,1.444 33.604,2.065 32.5,3.169L35.328,5.998ZM36.664,5.444C37.165,5.444 37.646,5.643 38,5.998L40.828,3.169C39.724,2.065 38.226,1.444 36.664,1.444L36.664,5.444ZM38,5.998C38.354,6.352 38.553,6.832 38.553,7.333L42.553,7.333C42.553,5.772 41.933,4.274 40.828,3.169L38,5.998ZM38.553,7.333C38.553,7.834 38.354,8.315 38,8.669L40.828,11.498C41.933,10.393 42.553,8.895 42.553,7.333L38.553,7.333ZM38,8.669L20.583,26.086L23.412,28.914L40.828,11.498L38,8.669ZM21.512,25.56L14.179,27.393L15.149,31.274L22.482,29.44L21.512,25.56ZM16.604,29.819L18.438,22.485L14.557,21.515L12.724,28.848L16.604,29.819ZM17.912,23.414L35.328,5.998L32.5,3.169L15.083,20.586L17.912,23.414Z" fill="#FFFFFF"/>
</svg>
