<svg width="24" height="24" viewBox="0 0 24 24" fill="none" xmlns="http://www.w3.org/2000/svg">
<path d="M14.24 10.5596C13.93 11.7996 12 11.1696 11.4 10.9996L11.95 8.81955C12.57 8.99955 14.56 9.25955 14.24 10.5596ZM11.13 12.1196L10.53 14.5296C11.27 14.7196 13.56 15.4496 13.9 14.0896C14.26 12.6696 11.87 12.2996 11.13 12.1196ZM21.7 14.4196C20.36 19.7796 14.94 23.0396 9.58 21.6996C4.22 20.3596 0.963001 14.9396 2.3 9.57955C2.61764 8.30564 3.18313 7.10678 3.96417 6.05145C4.74521 4.99612 5.72649 4.10499 6.85198 3.42895C7.97747 2.75291 9.22511 2.30522 10.5236 2.11144C11.8222 1.91765 13.1462 1.98157 14.42 2.29955C19.77 3.63955 23.03 9.05955 21.7 14.4196ZM14.21 8.04955L14.66 6.24955L13.56 5.99955L13.12 7.72955C12.83 7.65955 12.54 7.58955 12.24 7.52955L12.68 5.75955L11.59 5.49955L11.14 7.28955C10.9 7.22955 10.66 7.17955 10.44 7.11955L8.93 6.73955L8.63 7.90955C8.63 7.90955 9.45 8.09955 9.43 8.10955C9.88 8.21955 9.96 8.49955 9.94 8.74955L8.71 13.6796C8.66 13.8196 8.5 13.9996 8.21 13.9496C8.22 13.9596 7.41 13.7496 7.41 13.7496L6.87 14.9996L8.29 15.3596C8.56 15.4296 8.82 15.4996 9.08 15.5596L8.62 17.3796L9.72 17.6596L10.17 15.8496C10.47 15.9296 10.76 15.9996 11.04 16.0796L10.59 17.8696L11.69 18.1496L12.15 16.3296C14 16.6796 15.42 16.5396 16 14.8496C16.5 13.4996 16 12.6996 15 12.1896C15.72 11.9996 16.26 11.5496 16.41 10.5696C16.61 9.23955 15.59 8.52955 14.21 8.04955Z" fill="white"/>
</svg>
