<svg width="31" height="30" viewBox="0 0 31 30" fill="none" xmlns="http://www.w3.org/2000/svg">
<path d="M10.0776 2.5H20.9276C25.0609 2.5 28.4193 5.75 28.4193 9.75V20.25C28.4193 22.1728 27.63 24.0169 26.225 25.3765C24.8201 26.7362 22.9145 27.5 20.9276 27.5H10.0776C5.94427 27.5 2.58594 24.25 2.58594 20.25V9.75C2.58594 7.82718 3.37524 5.98311 4.7802 4.62348C6.18516 3.26384 8.09069 2.5 10.0776 2.5ZM9.81927 5C8.58601 5 7.40327 5.47411 6.53122 6.31802C5.65918 7.16193 5.16927 8.30653 5.16927 9.5V20.5C5.16927 22.9875 7.24885 25 9.81927 25H21.1859C22.4192 25 23.6019 24.5259 24.474 23.682C25.346 22.8381 25.8359 21.6935 25.8359 20.5V9.5C25.8359 7.0125 23.7564 5 21.1859 5H9.81927ZM22.2839 6.875C22.7121 6.875 23.1227 7.03962 23.4255 7.33265C23.7283 7.62567 23.8984 8.0231 23.8984 8.4375C23.8984 8.8519 23.7283 9.24933 23.4255 9.54235C23.1227 9.83538 22.7121 10 22.2839 10C21.8556 10 21.445 9.83538 21.1422 9.54235C20.8394 9.24933 20.6693 8.8519 20.6693 8.4375C20.6693 8.0231 20.8394 7.62567 21.1422 7.33265C21.445 7.03962 21.8556 6.875 22.2839 6.875ZM15.5026 8.75C17.2155 8.75 18.8582 9.40848 20.0693 10.5806C21.2805 11.7527 21.9609 13.3424 21.9609 15C21.9609 16.6576 21.2805 18.2473 20.0693 19.4194C18.8582 20.5915 17.2155 21.25 15.5026 21.25C13.7897 21.25 12.147 20.5915 10.9359 19.4194C9.7247 18.2473 9.04427 16.6576 9.04427 15C9.04427 13.3424 9.7247 11.7527 10.9359 10.5806C12.147 9.40848 13.7897 8.75 15.5026 8.75ZM15.5026 11.25C14.4749 11.25 13.4893 11.6451 12.7626 12.3483C12.0359 13.0516 11.6276 14.0054 11.6276 15C11.6276 15.9946 12.0359 16.9484 12.7626 17.6517C13.4893 18.3549 14.4749 18.75 15.5026 18.75C16.5303 18.75 17.5159 18.3549 18.2426 17.6517C18.9693 16.9484 19.3776 15.9946 19.3776 15C19.3776 14.0054 18.9693 13.0516 18.2426 12.3483C17.5159 11.6451 16.5303 11.25 15.5026 11.25Z" fill="#FEFFB9"/>
</svg>
