<svg width="44" height="44" viewBox="0 0 44 44" fill="none" xmlns="http://www.w3.org/2000/svg" xmlns:xlink="http://www.w3.org/1999/xlink">
<line x1="20" y1="1.833" x2="20" y2="42.166" stroke="#FFFFFF" stroke-width="2" stroke-miterlimit="3.999327" stroke-linecap="round" stroke-linejoin="round"/>
<path d="M31.167,11.167C32.271,11.167 33.167,10.272 33.167,9.167C33.167,8.062 32.271,7.167 31.167,7.167L31.167,11.167ZM11,15.584L9,15.584L11,15.584ZM17.417,22L17.417,24L17.417,22ZM26.583,22L26.583,20L26.583,20L26.583,22ZM26.583,34.834L26.583,36.834L26.583,36.834L26.583,34.834ZM11,32.834C9.895,32.834 9,33.729 9,34.834C9,35.938 9.895,36.834 11,36.834L11,32.834ZM31.167,7.167L17.417,7.167L17.417,11.167L31.167,11.167L31.167,7.167ZM17.417,7.167C15.184,7.167 13.044,8.054 11.465,9.632L14.294,12.461C15.122,11.632 16.245,11.167 17.417,11.167L17.417,7.167ZM11.465,9.632C9.887,11.211 9,13.351 9,15.584L13,15.584C13,14.412 13.465,13.289 14.294,12.461L11.465,9.632ZM9,15.584C9,17.816 9.887,19.957 11.465,21.535L14.294,18.707C13.465,17.878 13,16.755 13,15.584L9,15.584ZM11.465,21.535C13.044,23.114 15.184,24 17.417,24L17.417,20C16.245,20 15.122,19.535 14.294,18.707L11.465,21.535ZM17.417,24L26.583,24L26.583,20L17.417,20L17.417,24ZM26.583,24C27.755,24 28.878,24.466 29.706,25.294L32.535,22.466C30.956,20.887 28.816,20 26.583,20L26.583,24ZM29.706,25.294C30.535,26.122 31,27.246 31,28.417L35,28.417C35,26.185 34.113,24.044 32.535,22.466L29.706,25.294ZM31,28.417C31,29.588 30.535,30.712 29.706,31.54L32.535,34.368C34.113,32.79 35,30.649 35,28.417L31,28.417ZM29.706,31.54C28.878,32.368 27.755,32.834 26.583,32.834L26.583,36.834C28.816,36.834 30.956,35.947 32.535,34.368L29.706,31.54ZM26.583,32.834L11,32.834L11,36.834L26.583,36.834L26.583,32.834Z" fill="#FFFFFF"/>
</svg>
