<svg width="35" height="46" viewBox="0 0 35 46" fill="none" xmlns="http://www.w3.org/2000/svg">
<path d="M3.16849 41H1.81249V34.664H0.348488V33.68C1.00849 33.68 1.57249 33.476 1.98049 32.96H3.16849V41ZM7.81539 41.12C6.27939 41.12 5.13939 40.304 4.73139 39.26L5.81139 38.216C6.08739 39.212 6.79539 39.812 7.82739 39.812C8.79939 39.812 9.32739 39.236 9.32739 38.3C9.32739 37.172 8.57139 36.716 7.74339 36.716C6.97539 36.716 6.43539 37.04 6.36339 37.556L6.35139 37.664L5.03139 37.532L5.29539 32.96H10.1794V34.208H6.59139L6.39939 37.028C6.65139 36.308 7.29939 35.732 8.36739 35.732C9.8914 35.732 10.7794 36.764 10.7794 38.36C10.7794 40.016 9.63939 41.12 7.81539 41.12ZM17.9321 41.12C16.3961 41.12 14.9921 40.568 14.3681 39.212L15.3281 38.24C15.7601 39.416 16.9721 39.872 17.9561 39.872C18.7601 39.872 19.4081 39.584 19.4081 38.852C19.4081 38.072 18.7601 37.856 17.7161 37.628L16.9601 37.46C15.8201 37.22 14.6081 36.704 14.6081 35.18C14.6081 33.668 15.9161 32.852 17.4281 32.852C18.9041 32.852 20.0801 33.464 20.6561 34.568L19.6361 35.54C19.1921 34.544 18.3281 34.112 17.3441 34.112C16.5761 34.112 16.0241 34.472 16.0241 35.084C16.0241 35.792 16.5761 36.044 17.4521 36.26L18.3521 36.476C19.6361 36.788 20.7881 37.292 20.7881 38.828C20.7881 40.28 19.5641 41.12 17.9321 41.12ZM24.6052 41.12C22.8652 41.12 21.7252 39.908 21.7252 38.084C21.7252 36.248 22.8652 35.036 24.5092 35.036C26.2612 35.036 27.2332 36.2 27.2332 37.82C27.2332 38.036 27.2092 38.288 27.1852 38.408H23.0092C23.0812 39.452 23.6932 40.016 24.6172 40.016C25.6372 40.016 26.0932 39.488 26.3092 38.996L27.1372 39.86C26.6932 40.532 25.9012 41.12 24.6052 41.12ZM24.5092 36.116C23.6812 36.116 23.1292 36.596 23.0212 37.544H26.0212C25.9252 36.62 25.3972 36.116 24.5092 36.116ZM31.0608 41.12C29.3208 41.12 28.2288 39.896 28.2288 38.084C28.2288 36.26 29.3208 35.036 31.0608 35.036C32.5248 35.036 33.4488 35.864 33.7608 36.968L32.5488 37.568C32.4168 36.728 31.9848 36.164 31.0848 36.164C30.1608 36.164 29.5968 36.848 29.5968 38.084C29.5968 39.308 30.1608 39.992 31.0848 39.992C31.9968 39.992 32.4168 39.428 32.5488 38.588L33.7608 39.188C33.4488 40.292 32.5248 41.12 31.0608 41.12Z" fill="black"/>
<g clip-path="url(#clip0_1_239)">
<path d="M28.1606 4.33325V10.8333H22.0863" stroke="black" stroke-width="2" stroke-linecap="round" stroke-linejoin="round"/>
<path d="M25.6196 16.2499C24.9631 18.2436 23.719 19.9551 22.0745 21.1264C20.4301 22.2977 18.4745 22.8654 16.5023 22.7439C14.5302 22.6225 12.6483 21.8184 11.1403 20.453C9.63232 19.0875 8.57987 17.2346 8.14155 15.1735C7.70322 13.1123 7.90276 10.9545 8.7101 9.02526C9.51744 7.096 10.8888 5.49976 12.6177 4.47707C14.3465 3.45437 16.3391 3.06061 18.2953 3.35511C20.2514 3.64962 22.0652 4.61644 23.4632 6.1099L28.1606 10.8332" stroke="black" stroke-width="2" stroke-linecap="round" stroke-linejoin="round"/>
</g>
<defs>
<clipPath id="clip0_1_239">
<rect width="24.2972" height="26" fill="white" transform="matrix(-1 0 0 1 29.1743 0)"/>
</clipPath>
</defs>
</svg>
