<svg width="25" height="26" viewBox="0 0 25 26" fill="none" xmlns="http://www.w3.org/2000/svg">
<g clip-path="url(#clip0_1726_56)">
<path d="M23.2812 4.33301V10.833H17.2069" stroke="black" stroke-width="2" stroke-linecap="round" stroke-linejoin="round"/>
<path d="M20.7402 16.2497C20.0837 18.2434 18.8396 19.9549 17.1951 21.1262C15.5507 22.2974 13.5951 22.8651 11.6229 22.7437C9.65077 22.6222 7.76892 21.8182 6.26093 20.4527C4.75293 19.0873 3.70048 17.2344 3.26215 15.1732C2.82382 13.1121 3.02336 10.9543 3.8307 9.02502C4.63804 7.09576 6.00945 5.49952 7.73829 4.47682C9.46713 3.45412 11.4597 3.06036 13.4159 3.35487C15.3721 3.64938 17.1858 4.6162 18.5838 6.10966L23.2812 10.833" stroke="black" stroke-width="2" stroke-linecap="round" stroke-linejoin="round"/>
</g>
<defs>
<clipPath id="clip0_1726_56">
<rect width="24.2972" height="26" fill="white" transform="matrix(-1 0 0 1 24.2969 0)"/>
</clipPath>
</defs>
</svg>
