<svg width="48" height="48" viewBox="0 0 48 48" fill="none" xmlns="http://www.w3.org/2000/svg" xmlns:xlink="http://www.w3.org/1999/xlink">
<path d="M36,22C36,29.732 29.732,36 22,36L22,40C31.941,40 40,31.941 40,22L36,22ZM22,36C14.268,36 8,29.732 8,22L4,22C4,31.941 12.059,40 22,40L22,36ZM8,22C8,14.268 14.268,8 22,8L22,4C12.059,4 4,12.059 4,22L8,22ZM22,8C29.732,8 36,14.268 36,22L40,22C40,12.059 31.941,4 22,4L22,8Z" fill="#FFFFFF"/>
<path d="M40.587,43.415C41.368,44.196 42.634,44.196 43.415,43.415C44.196,42.634 44.196,41.368 43.415,40.587L40.587,43.415ZM34.715,31.887C33.934,31.106 32.668,31.106 31.887,31.887C31.106,32.668 31.106,33.934 31.887,34.715L34.715,31.887ZM43.415,40.587L34.715,31.887L31.887,34.715L40.587,43.415L43.415,40.587Z" fill="#FFFFFF"/>
</svg>
