<svg width="28" height="16" viewBox="0 0 28 16" fill="none" xmlns="http://www.w3.org/2000/svg" xmlns:xlink="http://www.w3.org/1999/xlink">
<path d="M3.414,0.586C2.633,-0.195 1.367,-0.195 0.586,0.586C-0.195,1.367 -0.195,2.633 0.586,3.414L3.414,0.586ZM14,14L12.586,15.414C13.367,16.195 14.633,16.195 15.414,15.414L14,14ZM27.414,3.414C28.195,2.633 28.195,1.367 27.414,0.586C26.633,-0.195 25.367,-0.195 24.586,0.586L27.414,3.414ZM0.586,3.414L12.586,15.414L15.414,12.586L3.414,0.586L0.586,3.414ZM15.414,15.414L27.414,3.414L24.586,0.586L12.586,12.586L15.414,15.414Z" fill="#FFFFFF"/>
</svg>
