<svg width="31" height="30" viewBox="0 0 31 30" fill="none" xmlns="http://www.w3.org/2000/svg">
<path d="M24.6068 6.13757C23.4224 4.9802 22.0118 4.06253 20.4573 3.43802C18.9028 2.81352 17.2353 2.49467 15.5522 2.50007C8.49969 2.50007 2.75177 8.06257 2.75177 14.8876C2.75177 17.0751 3.34594 19.2001 4.45677 21.0751L2.64844 27.5001L9.42969 25.7751C11.3026 26.7626 13.408 27.2876 15.5522 27.2876C22.6047 27.2876 28.3526 21.7251 28.3526 14.9001C28.3526 11.5876 27.0222 8.47507 24.6068 6.13757ZM15.5522 25.1876C13.6405 25.1876 11.7676 24.6876 10.1272 23.7501L9.73969 23.5251L5.70969 24.5501L6.78177 20.7501L6.52344 20.3626C5.4611 18.7214 4.89713 16.8242 4.89594 14.8876C4.89594 9.21257 9.6751 4.58757 15.5393 4.58757C18.3809 4.58757 21.0547 5.66257 23.0568 7.61257C24.0483 8.5674 24.834 9.70325 25.3684 10.9542C25.9027 12.2052 26.1751 13.5464 26.1697 14.9001C26.1955 20.5751 21.4164 25.1876 15.5522 25.1876ZM21.3905 17.4876C21.0676 17.3376 19.4918 16.5876 19.2076 16.4751C18.9105 16.3751 18.7039 16.3251 18.4843 16.6251C18.2647 16.9376 17.6576 17.6376 17.4768 17.8376C17.2959 18.0501 17.1022 18.0751 16.7793 17.9126C16.4564 17.7626 15.423 17.4251 14.2089 16.3751C13.253 15.5501 12.6201 14.5376 12.4264 14.2251C12.2455 13.9126 12.4005 13.7501 12.5684 13.5876C12.7105 13.4501 12.8914 13.2251 13.0464 13.0501C13.2014 12.8751 13.2659 12.7376 13.3693 12.5376C13.4726 12.3251 13.4209 12.1501 13.3434 12.0001C13.2659 11.8501 12.6201 10.3251 12.3618 9.70007C12.1034 9.10007 11.8322 9.17507 11.6384 9.16257H11.0184C10.7989 9.16257 10.463 9.23757 10.1659 9.55007C9.88177 9.86257 9.0551 10.6126 9.0551 12.1376C9.0551 13.6626 10.2047 15.1376 10.3597 15.3376C10.5147 15.5501 12.6201 18.6751 15.8234 20.0126C16.5855 20.3376 17.1797 20.5251 17.6447 20.6626C18.4068 20.9001 19.1043 20.8626 19.6597 20.7876C20.2797 20.7001 21.5584 20.0376 21.8168 19.3126C22.088 18.5876 22.088 17.9751 21.9976 17.8376C21.9072 17.7001 21.7134 17.6376 21.3905 17.4876Z" fill="#FEFFB9"/>
</svg>
